<svg width="29" height="28" viewBox="0 0 29 28" fill="none" xmlns="http://www.w3.org/2000/svg">
<path d="M7.57533 21.4247C9.29319 23.1426 11.5536 24.2116 13.9713 24.4496C16.3891 24.6876 18.8145 24.0799 20.8344 22.73C22.8543 21.38 24.3435 19.3715 25.0484 17.0465C25.7532 14.7216 25.6301 12.2242 24.6999 9.97988C23.7697 7.73558 22.09 5.88327 19.9472 4.73863C17.8043 3.59398 15.3308 3.22783 12.9482 3.70256C10.5656 4.17729 8.42135 5.46354 6.88086 7.3421C5.34036 9.22066 4.49894 11.5753 4.5 14.0047V16.3334" stroke="white" stroke-width="2.5" stroke-linecap="round" stroke-linejoin="round"/>
<path d="M2.16666 14L4.49999 16.3334L6.83332 14M13.8333 9.33337V15.1667H19.6667" stroke="white" stroke-width="2.5" stroke-linecap="round" stroke-linejoin="round"/>
</svg>
