<svg width="28" height="28" viewBox="0 0 28 28" fill="none" xmlns="http://www.w3.org/2000/svg">
<path d="M22.1667 3.49996H17.29C16.8 2.14663 15.5167 1.16663 14 1.16663C12.4833 1.16663 11.2 2.14663 10.71 3.49996H5.83333C4.55 3.49996 3.5 4.54996 3.5 5.83329V22.1666C3.5 23.45 4.55 24.5 5.83333 24.5H22.1667C23.45 24.5 24.5 23.45 24.5 22.1666V5.83329C24.5 4.54996 23.45 3.49996 22.1667 3.49996ZM14 3.49996C14.6417 3.49996 15.1667 4.02496 15.1667 4.66663C15.1667 5.30829 14.6417 5.83329 14 5.83329C13.3583 5.83329 12.8333 5.30829 12.8333 4.66663C12.8333 4.02496 13.3583 3.49996 14 3.49996ZM11.6667 19.8333L7 15.1666L8.645 13.5216L11.6667 16.5316L19.355 8.84329L21 10.5L11.6667 19.8333Z" fill="white"/>
</svg>
