<svg width="28" height="28" viewBox="0 0 28 28" fill="none" xmlns="http://www.w3.org/2000/svg">
<path fill-rule="evenodd" clip-rule="evenodd" d="M14.0002 6.99996C13.4639 6.99996 12.933 7.10558 12.4375 7.31079C11.9421 7.516 11.492 7.81677 11.1128 8.19594C10.7336 8.57512 10.4329 9.02526 10.2277 9.52067C10.0224 10.0161 9.91683 10.5471 9.91683 11.0833C9.91683 11.6195 10.0224 12.1505 10.2277 12.6459C10.4329 13.1413 10.7336 13.5915 11.1128 13.9706C11.492 14.3498 11.9421 14.6506 12.4375 14.8558C12.933 15.061 13.4639 15.1666 14.0002 15.1666C15.0831 15.1666 16.1217 14.7364 16.8875 13.9706C17.6533 13.2049 18.0835 12.1663 18.0835 11.0833C18.0835 10.0003 17.6533 8.96172 16.8875 8.19594C16.1217 7.43017 15.0831 6.99996 14.0002 6.99996ZM12.2502 16.3333C11.0125 16.3333 9.8255 16.825 8.95033 17.7001C8.07516 18.5753 7.5835 19.7623 7.5835 21C7.5835 21.6188 7.82933 22.2123 8.26691 22.6499C8.7045 23.0875 9.29799 23.3333 9.91683 23.3333H18.0835C18.7023 23.3333 19.2958 23.0875 19.7334 22.6499C20.171 22.2123 20.4168 21.6188 20.4168 21C20.4168 19.7623 19.9252 18.5753 19.05 17.7001C18.1748 16.825 16.9878 16.3333 15.7502 16.3333H12.2502ZM20.2068 12.7213C20.5777 11.3089 20.4566 9.81224 19.8635 8.47779C19.2704 7.14334 18.2406 6.05061 16.9437 5.37946C17.4379 5.04173 18.0003 4.81679 18.5911 4.72057C19.1819 4.62435 19.7867 4.6592 20.3625 4.82266C20.9384 4.98612 21.4712 5.27418 21.9234 5.66645C22.3755 6.05873 22.7359 6.54561 22.979 7.09263C23.2221 7.63965 23.3419 8.23342 23.33 8.83189C23.3181 9.43037 23.1748 10.0189 22.9102 10.5559C22.6456 11.0928 22.2662 11.565 21.7988 11.939C21.3314 12.313 20.7875 12.5797 20.2057 12.7201L20.2068 12.7213ZM22.7502 21H23.3335C23.9523 21 24.5458 20.7541 24.9834 20.3165C25.421 19.879 25.6668 19.2855 25.6668 18.6666C25.6668 17.429 25.1752 16.242 24.3 15.3668C23.4248 14.4916 22.2378 14 21.0002 14H19.7168C19.5581 14.3107 19.3744 14.6081 19.1673 14.889C20.2541 15.4968 21.159 16.3836 21.7888 17.4578C22.4186 18.532 22.7505 19.7548 22.7502 21ZM4.66683 8.74996C4.66665 8.00655 4.86943 7.27719 5.25329 6.64055C5.63715 6.00391 6.18753 5.48414 6.84508 5.1373C7.50262 4.79046 8.24238 4.62971 8.98456 4.67238C9.72675 4.71506 10.4432 4.95954 11.0567 5.37946C9.75845 6.04916 8.7276 7.14177 8.13448 8.4767C7.54137 9.81164 7.42149 11.309 7.79466 12.7213C6.90309 12.5067 6.10971 11.9983 5.54231 11.2778C4.97491 10.5574 4.66652 9.66699 4.66683 8.74996ZM8.2835 14H7.00016C5.76249 14 4.5755 14.4916 3.70033 15.3668C2.82516 16.242 2.3335 17.429 2.3335 18.6666C2.3335 19.2855 2.57933 19.879 3.01691 20.3165C3.4545 20.7541 4.04799 21 4.66683 21H5.25016C5.24985 19.7548 5.58171 18.532 6.2115 17.4578C6.8413 16.3836 7.74624 15.4968 8.833 14.889C8.62596 14.6081 8.44219 14.3107 8.2835 14Z" fill="white"/>
</svg>
