<svg width="391" height="391" viewBox="0 0 391 391" fill="none" xmlns="http://www.w3.org/2000/svg">
<path d="M209.106 232.236H191.911V300.453H209.106V232.236Z" fill="#E0E0E0"/>
<path d="M205.84 300.454H209.106V291.164H202.416L205.84 300.454Z" fill="#FAFAFA"/>
<path d="M133.756 232.236H116.561V300.453H133.756V232.236Z" fill="#E0E0E0"/>
<path d="M209.107 232.236H130.906V294.753H209.107V232.236Z" fill="#FAFAFA"/>
<path d="M206.271 235.309V251.849H133.742V235.309H206.271ZM206.572 235.007H133.439V252.152H206.572V235.007Z" fill="#E0E0E0"/>
<path d="M134.172 300.454H130.906V291.164H137.596L134.172 300.454Z" fill="#FAFAFA"/>
<path d="M168.276 243.579C168.276 244.534 169.05 245.309 170.006 245.309C170.961 245.309 171.736 244.535 171.736 243.579C171.736 242.624 170.962 241.849 170.006 241.849C169.051 241.85 168.276 242.624 168.276 243.579Z" fill="#E6E6E6"/>
<path d="M206.271 255.224V271.765H133.742V255.224H206.271ZM206.572 254.923H133.439V272.067H206.572V254.923Z" fill="#E0E0E0"/>
<path d="M168.276 263.494C168.276 264.449 169.05 265.224 170.006 265.224C170.961 265.224 171.736 264.45 171.736 263.494C171.736 262.539 170.962 261.764 170.006 261.764C169.051 261.765 168.276 262.539 168.276 263.494Z" fill="#E6E6E6"/>
<path d="M206.271 275.14V291.68H133.742V275.14H206.271ZM206.572 274.838H133.439V291.982H206.572V274.838Z" fill="#E0E0E0"/>
<path d="M168.276 283.41C168.276 284.365 169.05 285.14 170.006 285.14C170.961 285.14 171.736 284.366 171.736 283.41C171.736 282.454 170.962 281.68 170.006 281.68C169.051 281.68 168.276 282.454 168.276 283.41Z" fill="#E6E6E6"/>
<path d="M123.251 192.619H106.056V300.454H123.251V192.619Z" fill="#E0E0E0"/>
<path d="M119.985 300.454H123.251V291.164H116.561L119.985 300.454Z" fill="#FAFAFA"/>
<path d="M58.984 192.619H41.7886V300.454H58.984V192.619Z" fill="#E0E0E0"/>
<path d="M123.251 192.619H56.1344V294.753H123.251V192.619Z" fill="#FAFAFA"/>
<path d="M120.362 195.511V218.635H59.0239V195.511H120.362ZM120.717 195.155H58.6681V218.991H120.717V195.155Z" fill="#E0E0E0"/>
<path d="M120.362 221.445V282.782H91.1453V221.445H120.362ZM120.717 221.089H90.7887V283.14H120.717V221.089Z" fill="#E0E0E0"/>
<path d="M88.2402 221.445V282.782H59.0239V221.445H88.2402ZM88.5968 221.089H58.6681V283.14H88.5968V221.089Z" fill="#E0E0E0"/>
<path d="M59.4 300.454H56.1344V291.164H62.8244L59.4 300.454Z" fill="#FAFAFA"/>
<path d="M87.9634 207.073C87.9634 208.028 88.7376 208.803 89.6932 208.803C90.648 208.803 91.4229 208.028 91.4229 207.073C91.4229 206.118 90.6488 205.343 89.6932 205.343C88.7376 205.344 87.9634 206.118 87.9634 207.073Z" fill="#E6E6E6"/>
<path d="M94.1552 250.651C94.1552 251.606 94.9293 252.381 95.8849 252.381C96.8405 252.381 97.6147 251.607 97.6147 250.651C97.6147 249.697 96.8405 248.922 95.8849 248.922C94.9293 248.922 94.1552 249.696 94.1552 250.651Z" fill="#E6E6E6"/>
<path d="M81.7706 250.651C81.7706 251.606 82.5448 252.381 83.5004 252.381C84.4552 252.381 85.2302 251.607 85.2302 250.651C85.2302 249.697 84.456 248.922 83.5004 248.922C82.5456 248.922 81.7706 249.696 81.7706 250.651Z" fill="#E6E6E6"/>
<path d="M79.8227 162.554H72.5689C72.5689 162.554 73.8279 169.259 73.8279 173.205C73.8279 177.151 68.3101 192.619 76.1958 192.619C84.0807 192.619 78.5637 177.15 78.5637 173.205C78.5629 169.258 79.8227 162.554 79.8227 162.554Z" fill="#E0E0E0"/>
<path d="M52.24 178.412V183.125C52.24 188.346 56.5121 192.618 61.7343 192.618H66.4474C71.6688 192.618 75.9408 188.346 75.9408 183.125V178.412H52.24Z" fill="#F5F5F5"/>
<path d="M153.012 222.295C153.012 227.763 159.136 232.237 166.62 232.237H173.376C180.861 232.237 186.985 227.763 186.985 222.295H153.012Z" fill="#E0E0E0"/>
<path d="M332.042 214.291C327.944 217.636 322.289 223.761 317.107 232.378C313.655 238.116 311.575 244.129 310.661 252.072C310.681 243.08 310.709 233.418 310.74 224.3C311.781 221.954 314.158 216.546 315.864 212.273C321.555 198.016 323.674 194.511 328.792 182.214C335.618 165.812 342.613 146.351 340.61 147.906C336.529 151.075 320.888 180.362 319.198 184.554C313.383 198.974 311.763 209.485 310.757 219.629C310.788 211.064 310.822 203.2 310.854 197.133C310.959 177.342 311.296 170.955 311.46 168.985C312.093 167.984 312.841 166.817 313.275 166.188C316.949 160.876 318.366 156.351 321.828 148.428C326.734 137.2 330.958 117.267 329.723 118.273C324.581 122.459 320.525 131.459 315.195 142.927C309.865 154.395 311.389 160.99 310.331 170.784C310.109 172.706 309.939 179.959 309.817 190.012C308.434 179.302 305.841 172.245 301.11 165.832C295.29 157.944 289.661 152.615 285.53 149.832C281.4 147.05 292.663 166.426 298.049 174.883C302.846 182.415 307.264 189.061 309.756 195.606C309.624 209.23 309.563 226.483 309.563 242.542C308.327 235.233 306.309 227.364 303.618 221.27C300.383 213.948 295.408 202.718 291.447 198.909C290.495 197.994 295.588 219.835 298.856 225.643C302.125 231.451 304.524 236.924 306.582 240.216C307.062 240.984 308.654 243.946 309.563 245.65C309.572 265.254 309.672 282.554 309.843 288.442H310.689C310.632 286.923 310.622 276.95 310.64 263.751C312.68 256.584 317.344 248.405 321.193 240.944C325.395 232.799 336.14 210.946 332.042 214.291Z" fill="#E0E0E0"/>
<path d="M322.528 300.454H298.018L296.168 276.428H324.378L322.528 300.454Z" fill="#F0F0F0"/>
<path d="M326.205 279.227H294.341L293.428 271.121H327.118L326.205 279.227Z" fill="#F5F5F5"/>
<path d="M97.1714 59.0387H53.3387V107.17H97.1714V59.0387Z" fill="#E0E0E0"/>
<path d="M101.919 59.0387H56.6427V107.17H101.919V59.0387Z" fill="#F5F5F5"/>
<path d="M98.1252 103.377L98.1252 62.8316L60.4352 62.8316L60.4352 103.377H98.1252Z" fill="white"/>
<path d="M88.9899 93.5501V72.6598H69.5712V93.5501H88.9899Z" fill="#F5F5F5"/>
<path d="M320.66 64.6495H279.941V109.362H320.66V64.6495Z" fill="#E0E0E0"/>
<path d="M325.07 64.6495H283.01V109.362H325.07V64.6495Z" fill="#F5F5F5"/>
<path d="M321.547 105.839V68.1736H286.534V105.839H321.547Z" fill="white"/>
<path d="M304.04 97.9291C310.073 97.9291 314.963 93.0387 314.963 87.0061C314.963 80.9735 310.073 76.0831 304.04 76.0831C298.007 76.0831 293.117 80.9735 293.117 87.0061C293.117 93.0387 298.007 97.9291 304.04 97.9291Z" fill="#F5F5F5"/>
<path d="M142.706 87.7381H110.191V123.443H142.706V87.7381Z" fill="#E0E0E0"/>
<path d="M146.229 87.7381H112.642V123.443H146.229V87.7381Z" fill="#F5F5F5"/>
<path d="M143.415 120.629V90.5521H115.457V120.629H143.415Z" fill="white"/>
<path d="M129.436 97.987L121.79 111.232H137.082L129.436 97.987Z" fill="#F5F5F5"/>
<path d="M195.5 334.353C279.238 334.353 347.121 330.388 347.121 325.498C347.121 320.608 279.238 316.644 195.5 316.644C111.762 316.644 43.8788 320.608 43.8788 325.498C43.8788 330.388 111.762 334.353 195.5 334.353Z" fill="#F5F5F5"/>
<path d="M273.11 127.804L265.354 124.659C265.354 124.659 255.117 143.327 252.186 144.27C248.196 145.552 239.945 149.117 235.042 149.785C234.381 150.558 233.291 152.994 233.395 153.883C239.973 156.076 254.424 153.163 257.518 150.867C264.57 145.628 273.11 127.804 273.11 127.804Z" fill="#E58A7B"/>
<path d="M275.499 123.568C276.941 128.916 269.107 139.658 269.107 139.658L258.814 133.885C258.814 133.885 260.733 129.469 263.082 124.971C266.875 117.709 273.851 117.464 275.499 123.568Z" fill="#407BFF"/>
<path opacity="0.2" d="M275.499 123.568C276.941 128.916 269.107 139.658 269.107 139.658L258.814 133.885C258.814 133.885 260.733 129.469 263.082 124.971C266.875 117.709 273.851 117.464 275.499 123.568Z" fill="black"/>
<path opacity="0.2" d="M262.918 136.184L266.96 138.45L267.667 126.043C265.321 127.851 263.657 133.291 262.918 136.184Z" fill="black"/>
<path d="M268.744 119.539C268.744 119.539 260.752 137.318 265.412 170.429C274.9 170.429 292.286 170.429 296.903 170.429C297.403 165.595 295.748 142.013 301.746 119.235C301.746 119.235 296.412 118.152 291.282 117.904C287.27 117.711 281.452 117.582 277.895 117.905C273.207 118.331 268.744 119.539 268.744 119.539Z" fill="#407BFF"/>
<path opacity="0.2" d="M268.744 119.539C268.744 119.539 260.752 137.318 265.412 170.429C274.9 170.429 292.286 170.429 296.903 170.429C297.403 165.595 295.748 142.013 301.746 119.235C301.746 119.235 296.412 118.152 291.282 117.904C287.27 117.711 281.452 117.582 277.895 117.905C273.207 118.331 268.744 119.539 268.744 119.539Z" fill="black"/>
<path d="M261.441 326.205C261.391 327.045 273.331 327.725 288.108 327.725C302.886 327.725 314.905 327.045 314.954 326.205C315.004 325.365 303.064 324.685 288.287 324.685C273.509 324.684 261.49 325.365 261.441 326.205Z" fill="#E8ECF1"/>
<path d="M283.194 305.103L277.59 307.262L282.396 319.735L288 317.576L283.194 305.103Z" fill="#E58A7B"/>
<path d="M307.366 320.193H301.478L299.318 306.558H305.206L307.366 320.193Z" fill="#E58A7B"/>
<path d="M301.1 319.511H307.715C307.955 319.511 308.154 319.678 308.192 319.913L309.049 325.146C309.138 325.689 308.681 326.203 308.125 326.193C305.818 326.153 304.704 326.018 301.796 326.018C300.006 326.018 296.308 326.204 293.836 326.204C291.419 326.204 291.185 323.761 292.211 323.539C296.805 322.547 298.594 321.178 300.123 319.873C300.398 319.638 300.748 319.511 301.1 319.511Z" fill="#263238"/>
<path d="M281.498 317.45L287.771 315.626C288.005 315.558 288.247 315.659 288.351 315.869L290.675 320.558C290.916 321.044 290.631 321.654 290.087 321.802C287.815 322.422 286.288 322.81 283.444 323.637C281.479 324.208 279.48 325.138 277.538 325.758C276.194 326.186 273.037 326.203 271.402 326.203C268.985 326.203 268.446 323.655 269.482 323.538C272.104 323.244 272.456 323.38 273.903 322.655C276.296 321.454 278.147 320.46 280.219 318.29C280.58 317.913 281.003 317.594 281.498 317.45Z" fill="#263238"/>
<path d="M236.033 149.729L229.554 147.003L226.887 154.18C226.887 154.18 230.626 154.858 234.896 154.18L236.033 149.729Z" fill="#E58A7B"/>
<path d="M224.74 146.827L224.568 151.602L226.887 154.18L229.555 147.003L224.74 146.827Z" fill="#E58A7B"/>
<path d="M283.215 305.089L277.61 307.253L280.092 313.681L285.697 311.517L283.215 305.089Z" fill="#CF6F64"/>
<path d="M305.208 306.562H299.318L300.434 313.59H306.324L305.208 306.562Z" fill="#CF6F64"/>
<path opacity="0.2" d="M264.412 161.473C264.525 162.887 264.662 164.333 264.83 165.82L288.247 158.218C291.903 157.125 295.085 154.827 297.255 151.685C297.344 149.596 297.464 147.402 297.641 145.112C297.721 143.995 297.818 142.853 297.922 141.697C298.035 140.492 298.163 139.262 298.308 138.025L264.412 161.473Z" fill="black"/>
<path d="M272.058 135.824L271.26 135.729C271.725 131.827 274.638 128.743 277.715 128.817L277.691 129.62C275.035 129.543 272.475 132.325 272.058 135.824Z" fill="white"/>
<path d="M276.224 143.045C276.181 143.045 276.137 143.044 276.092 143.043L276.116 142.24C278.805 142.338 281.332 139.535 281.749 136.035L282.547 136.131C282.089 139.977 279.268 143.045 276.224 143.045Z" fill="white"/>
<path d="M290.84 102.831C289.743 107.138 288.438 115.03 291.283 117.904C291.283 117.904 289.295 122.273 281.292 122.273C273.978 122.273 277.895 117.904 277.895 117.904C282.766 116.757 282.851 113.193 282.211 109.846L290.84 102.831Z" fill="#E58A7B"/>
<path d="M287.322 105.694L282.214 109.844C282.368 110.636 282.478 111.439 282.488 112.219C283.981 113.706 286.978 109.94 287.285 108.018C287.437 107.061 287.451 106.14 287.322 105.694Z" fill="#CF6F64"/>
<path d="M273.437 102.777C274.186 104.118 275.506 104.952 276.754 105.23C278.632 105.648 279.576 103.921 279.058 102.182C278.592 100.618 277.054 98.5148 275.167 98.8753C273.308 99.2311 272.581 101.245 273.437 102.777Z" fill="#CF6F64"/>
<path d="M276.536 88.9916C273.611 90.3319 272.58 101.95 276.257 103.668C279.934 105.385 282.075 86.454 276.536 88.9916Z" fill="#263238"/>
<path d="M291.732 96.3487C291.032 102.181 290.917 105.613 287.796 108.607C283.101 113.109 276.058 110.439 275.008 104.617C274.063 99.3766 275.366 90.719 281.212 88.3981C286.971 86.1115 292.432 90.5165 291.732 96.3487Z" fill="#E58A7B"/>
<path d="M282.125 92.014C286.451 90.9075 289.636 90.1536 288.499 93.7649C286.985 98.5758 285.17 103.237 287.605 103.454C289.087 103.586 295.656 100.798 294.822 97.9799C294.095 95.5244 297.149 94.8621 297.712 93.6101C299.74 89.1011 293.946 89.6868 294.977 86.9584C295.981 84.3019 290.309 79.8125 287.166 82.006C282.079 85.557 273.336 85.5062 277.933 79.6819C281.224 75.5107 275.352 76.367 275.352 76.367C275.352 76.367 278.899 78.4714 272.928 81.7245C266.599 85.1715 272.392 94.5039 282.125 92.014Z" fill="#263238"/>
<path d="M293.99 102.777C293.083 104.118 291.666 104.952 290.385 105.23C288.458 105.648 287.717 103.921 288.438 102.182C289.088 100.618 290.873 98.5148 292.717 98.8753C294.534 99.2311 295.025 101.245 293.99 102.777Z" fill="#E58A7B"/>
<path d="M265.412 170.429C265.412 170.429 260.126 217.738 259.713 235.692C259.285 254.368 277.627 312.637 277.627 312.637L287.02 308.692C287.02 308.692 276.083 255.459 277.603 237.117C279.259 217.122 286.112 170.428 286.112 170.428H265.412V170.429Z" fill="#407BFF"/>
<path opacity="0.2" d="M278.548 183.419C274.336 192.162 277.174 209.447 279.455 219.694C280.323 212.461 281.352 204.61 282.332 197.346C282.236 186.175 281.368 177.553 278.548 183.419Z" fill="black"/>
<path d="M286.595 305.626C286.639 305.608 287.709 308.619 287.709 308.619L276.883 313.165L275.177 309.994L286.595 305.626Z" fill="#407BFF"/>
<path d="M276.582 170.429C276.582 170.429 280.626 215.424 283.306 232.281C286.241 250.74 297.769 312.229 297.769 312.229H308.553C308.553 312.229 302.091 252.23 300.871 233.954C299.546 214.118 296.902 170.429 296.902 170.429H276.582Z" fill="#407BFF"/>
<path d="M308.718 309.419C308.764 309.419 309.078 312.433 309.078 312.433H297.226L296.38 308.974L308.718 309.419Z" fill="#407BFF"/>
<path opacity="0.2" d="M304.587 305.857C304.536 305.857 304.493 305.819 304.487 305.768C304.429 305.222 298.602 251.054 297.506 234.634C296.316 216.814 293.924 177.304 293.9 176.906C293.897 176.851 293.939 176.803 293.994 176.8C293.996 176.8 293.998 176.8 294 176.8C294.052 176.8 294.098 176.841 294.101 176.895C294.124 177.291 296.516 216.802 297.707 234.62C298.802 251.037 304.628 305.201 304.687 305.746C304.693 305.802 304.653 305.851 304.598 305.857C304.594 305.857 304.59 305.857 304.587 305.857Z" fill="black"/>
<path d="M282.79 97.9791C282.762 98.4538 282.488 98.8393 282.178 98.8393C281.867 98.8393 281.638 98.4546 281.666 97.9791C281.694 97.5045 281.968 97.1189 282.279 97.1189C282.589 97.1189 282.818 97.5045 282.79 97.9791Z" fill="#263238"/>
<path d="M277.422 97.9791C277.394 98.4538 277.12 98.8393 276.81 98.8393C276.5 98.8393 276.27 98.4546 276.299 97.9791C276.327 97.5045 276.6 97.1189 276.911 97.1189C277.221 97.1189 277.45 97.5045 277.422 97.9791Z" fill="#263238"/>
<path d="M279.115 98.2153C279.115 98.2153 277.874 100.955 276.607 102.277C277.402 103.061 278.851 102.702 278.851 102.702L279.115 98.2153Z" fill="#DF5753"/>
<path d="M279.251 104.695C279.175 104.695 279.115 104.632 279.12 104.556C279.125 104.479 279.191 104.417 279.268 104.417C281.353 104.417 282.411 102.96 282.422 102.946C282.469 102.881 282.556 102.863 282.617 102.905C282.679 102.947 282.692 103.033 282.646 103.098C282.599 103.162 281.486 104.695 279.251 104.695Z" fill="#263238"/>
<path d="M283.745 96.5348C283.664 96.5661 283.574 96.5614 283.498 96.5137C282.472 95.8677 281.516 96.301 281.507 96.3064C281.375 96.3737 281.201 96.315 281.142 96.1758C281.084 96.0366 281.152 95.8701 281.295 95.8036C281.346 95.7794 282.543 95.2359 283.816 96.0374C283.943 96.118 283.975 96.2892 283.887 96.4206C283.851 96.4738 283.8 96.5129 283.745 96.5348Z" fill="#263238"/>
<path d="M275.347 94.9747C275.309 94.9637 275.271 94.9442 275.241 94.9145C275.131 94.8128 275.131 94.6369 275.241 94.5211C276.332 93.3677 277.598 93.5436 277.651 93.5514C277.799 93.5679 277.899 93.7157 277.867 93.8682C277.834 94.0199 277.687 94.1246 277.537 94.1027C277.495 94.0965 276.507 93.9706 275.635 94.891C275.558 94.9739 275.445 95.0028 275.347 94.9747Z" fill="#263238"/>
<path d="M304.769 126.932L296.634 124.767C296.634 124.767 288.657 144.401 285.84 145.683C282.006 147.427 272.298 153.461 268.172 156.371C267.943 157.344 268.123 159.937 268.642 160.643C275.657 159.368 289.154 154.18 291.968 151.542C298.385 145.529 304.769 126.932 304.769 126.932Z" fill="#E58A7B"/>
<path d="M299.092 320.539C298.644 320.539 298.23 320.463 297.976 320.24C297.775 320.062 297.693 319.814 297.732 319.503C297.76 319.27 297.889 319.16 297.994 319.108C298.657 318.775 300.494 319.94 300.702 320.075C300.747 320.105 300.769 320.161 300.757 320.216C300.745 320.271 300.701 320.316 300.645 320.328C300.23 320.427 299.637 320.539 299.092 320.539ZM298.289 319.321C298.216 319.321 298.155 319.332 298.106 319.356C298.068 319.376 298.022 319.412 298.009 319.52C297.982 319.742 298.033 319.908 298.169 320.026C298.474 320.298 299.241 320.334 300.253 320.132C299.61 319.747 298.74 319.321 298.289 319.321Z" fill="#407BFF"/>
<path d="M300.613 320.332C300.59 320.332 300.567 320.327 300.547 320.316C299.956 319.984 298.855 318.695 299.018 318.038C299.047 317.919 299.147 317.713 299.483 317.673C299.703 317.645 299.898 317.706 300.067 317.851C300.718 318.41 300.759 320.109 300.76 320.181C300.762 320.232 300.735 320.281 300.69 320.309C300.666 320.324 300.639 320.332 300.613 320.332ZM299.565 317.946C299.544 317.946 299.523 317.948 299.501 317.95C299.319 317.972 299.298 318.056 299.289 318.091C299.192 318.479 299.886 319.454 300.465 319.914C300.425 319.417 300.295 318.426 299.878 318.068C299.782 317.985 299.68 317.946 299.565 317.946Z" fill="#407BFF"/>
<path d="M278.327 319.567C277.752 319.706 277.203 319.747 276.852 319.557C276.629 319.437 276.501 319.235 276.471 318.961C276.453 318.796 276.509 318.653 276.63 318.546C277.26 317.985 279.811 318.588 280.101 318.659C280.157 318.673 280.197 318.721 280.199 318.781C280.202 318.84 280.167 318.896 280.112 318.922C279.639 319.136 278.966 319.412 278.327 319.567ZM277.056 318.638C276.948 318.663 276.864 318.7 276.808 318.749C276.759 318.793 276.741 318.843 276.749 318.915C276.769 319.101 276.851 319.231 276.996 319.311C277.411 319.537 278.376 319.358 279.617 318.839C278.745 318.656 277.605 318.504 277.056 318.638Z" fill="#407BFF"/>
<path d="M280.086 318.929C280.066 318.934 280.047 318.934 280.027 318.932C279.269 318.791 277.651 317.892 277.636 317.218C277.632 317.061 277.706 316.845 278.077 316.717C278.346 316.616 278.623 316.636 278.882 316.764C279.732 317.183 280.176 318.685 280.195 318.748C280.209 318.795 280.196 318.846 280.162 318.885C280.141 318.907 280.114 318.922 280.086 318.929ZM278.236 316.954C278.21 316.96 278.182 316.97 278.154 316.978C277.912 317.063 277.914 317.163 277.914 317.196C277.924 317.599 279.047 318.342 279.841 318.592C279.683 318.161 279.303 317.289 278.746 317.015C278.579 316.932 278.411 316.912 278.236 316.954Z" fill="#407BFF"/>
<path d="M268.834 155.909L260.68 159.663L259.734 161.963L262.747 163.991C262.747 163.991 268.371 163.379 269.974 159.765L268.834 155.909Z" fill="#E58A7B"/>
<path d="M269.182 160.776C268.672 157.747 267.675 156.365 267.666 156.352L268.952 155.387C269.002 155.454 270.183 157.049 270.767 160.509L269.182 160.776Z" fill="#263238"/>
<path d="M270.57 157.019C270.835 157.673 270.41 158.461 269.621 158.78C268.832 159.099 267.979 158.827 267.715 158.173C267.45 157.518 267.875 156.73 268.664 156.411C269.452 156.093 270.306 156.364 270.57 157.019Z" fill="#263238"/>
<path d="M255.17 162.694L256.253 163.791L263.57 160.661L260.68 159.663L255.17 162.694Z" fill="#E58A7B"/>
<path opacity="0.2" d="M286.595 305.626C286.639 305.608 287.709 308.619 287.709 308.619L276.883 313.165L275.177 309.994L286.595 305.626Z" fill="black"/>
<path opacity="0.2" d="M308.718 309.419C308.764 309.419 309.078 312.433 309.078 312.433H297.226L296.38 308.974L308.718 309.419Z" fill="black"/>
<path d="M306.889 124.681C309.04 131.615 300.664 141.088 300.664 141.088L289.053 136.349C289.053 136.349 290.689 131.311 293.802 124.562C297.341 116.891 304.717 117.683 306.889 124.681Z" fill="#407BFF"/>
<path opacity="0.2" d="M306.889 124.681C309.04 131.615 300.664 141.088 300.664 141.088L289.053 136.349C289.053 136.349 290.689 131.311 293.802 124.562C297.341 116.891 304.717 117.683 306.889 124.681Z" fill="black"/>
<path d="M191.491 55.1857H186.497V55.9896H191.491V55.1857Z" fill="#407BFF"/>
<path d="M256.185 87.0604L255.581 100.479L256.383 100.515L256.988 87.0966L256.185 87.0604Z" fill="#407BFF"/>
<path d="M254.629 58.8017H162.354L153.764 250.954H246.039L254.629 58.8017Z" fill="#407BFF"/>
<path opacity="0.56" d="M251.874 61.4386H159.599L151.01 253.591H243.285L251.874 61.4386Z" fill="#FAFAFA"/>
<path opacity="0.07" d="M249.119 64.0755H156.845L148.255 256.228H240.53L249.119 64.0755Z" fill="#407BFF"/>
<path d="M238.616 147.881H159.856L159.198 162.587H237.959L238.616 147.881Z" fill="white"/>
<path d="M203.175 137.155H160.335L160.041 143.735H202.88L203.175 137.155Z" fill="#407BFF"/>
<path d="M236.843 187.562H158.081L157.424 202.268H236.185L236.843 187.562Z" fill="white"/>
<path opacity="0.47" d="M222.399 222.116H169.435L168.648 239.742H221.611L222.399 222.116Z" fill="#407BFF"/>
<path d="M218.857 242.472H165.893C165.868 242.472 165.844 242.461 165.826 242.443C165.809 242.425 165.8 242.4 165.801 242.375L166.589 224.749C166.591 224.699 166.632 224.66 166.682 224.66H219.645C219.67 224.66 219.694 224.671 219.712 224.689C219.729 224.707 219.739 224.732 219.737 224.757L218.949 242.382C218.947 242.433 218.906 242.472 218.857 242.472ZM165.99 242.286H218.768L219.546 224.846H166.769L165.99 242.286Z" fill="white"/>
<path d="M193.919 176.837H158.561L158.267 183.417H193.624L193.919 176.837Z" fill="#407BFF"/>
<path d="M221.389 100.392C221.192 104.796 219.596 108.862 217.037 112.165C213.173 117.172 207.121 120.426 200.459 120.426C193.798 120.426 188.044 117.172 184.629 112.165C182.365 108.862 181.133 104.797 181.33 100.392C181.825 89.3271 191.193 80.3591 202.251 80.3591C213.316 80.3583 221.883 89.3271 221.389 100.392Z" fill="white"/>
<path d="M223.273 84.5522C223.22 85.7221 222.796 86.8028 222.116 87.6802C221.089 89.0104 219.482 89.8753 217.711 89.8753C215.941 89.8753 214.413 89.0104 213.505 87.6802C212.903 86.8028 212.576 85.7221 212.628 84.5522C212.76 81.6119 215.249 79.2291 218.187 79.2291C221.128 79.2291 223.404 81.6119 223.273 84.5522Z" fill="#407BFF"/>
<path d="M168.337 155.234C168.279 156.535 167.177 157.59 165.875 157.59C164.574 157.59 163.566 156.535 163.624 155.234C163.682 153.933 164.785 152.878 166.086 152.878C167.388 152.877 168.396 153.933 168.337 155.234Z" fill="#263238"/>
<path d="M178.884 155.234C178.826 156.535 177.724 157.59 176.422 157.59C175.121 157.59 174.113 156.535 174.171 155.234C174.229 153.933 175.331 152.878 176.633 152.878C177.934 152.878 178.943 153.933 178.884 155.234Z" fill="#263238"/>
<path d="M189.432 155.234C189.374 156.535 188.271 157.59 186.97 157.59C185.669 157.59 184.661 156.535 184.719 155.234C184.776 153.933 185.879 152.878 187.18 152.878C188.482 152.877 189.49 153.933 189.432 155.234Z" fill="#263238"/>
<path d="M166.564 194.915C166.506 196.216 165.403 197.271 164.102 197.271C162.801 197.271 161.793 196.216 161.851 194.915C161.908 193.614 163.011 192.558 164.312 192.558C165.613 192.559 166.621 193.614 166.564 194.915Z" fill="#263238"/>
<path d="M177.11 194.915C177.053 196.216 175.95 197.271 174.649 197.271C173.347 197.271 172.339 196.216 172.397 194.915C172.455 193.614 173.558 192.558 174.859 192.558C176.161 192.559 177.168 193.614 177.11 194.915Z" fill="#263238"/>
<path d="M187.657 194.915C187.599 196.216 186.497 197.271 185.196 197.271C183.894 197.271 182.886 196.216 182.944 194.915C183.002 193.614 184.105 192.558 185.406 192.558C186.707 192.558 187.716 193.614 187.657 194.915Z" fill="#263238"/>
<path d="M198.205 194.915C198.147 196.216 197.044 197.271 195.743 197.271C194.442 197.271 193.434 196.216 193.492 194.915C193.55 193.614 194.652 192.558 195.953 192.558C197.255 192.559 198.263 193.614 198.205 194.915Z" fill="#263238"/>
<path d="M208.752 194.915C208.694 196.216 207.591 197.271 206.29 197.271C204.989 197.271 203.981 196.216 204.039 194.915C204.096 193.614 205.199 192.558 206.5 192.558C207.802 192.559 208.81 193.614 208.752 194.915Z" fill="#263238"/>
<path d="M209.76 93.6961C209.56 98.1707 205.771 101.798 201.295 101.798C196.821 101.798 193.355 98.1707 193.555 93.6961C193.755 89.2207 197.545 85.5938 202.02 85.5938C206.495 85.5938 209.961 89.2215 209.76 93.6961Z" fill="#407BFF"/>
<path d="M217.037 112.165C213.173 117.171 207.121 120.426 200.459 120.426C193.797 120.426 188.044 117.171 184.629 112.165C188.43 108.38 194.447 105.921 201.108 105.921C207.777 105.921 213.574 108.38 217.037 112.165Z" fill="#407BFF"/>
<path opacity="0.1" d="M209.76 93.6961C209.56 98.1707 205.771 101.798 201.295 101.798C196.821 101.798 193.355 98.1707 193.555 93.6961C193.755 89.2207 197.545 85.5938 202.02 85.5938C206.495 85.5938 209.961 89.2215 209.76 93.6961Z" fill="white"/>
<path opacity="0.1" d="M217.037 112.165C213.173 117.171 207.121 120.426 200.459 120.426C193.797 120.426 188.044 117.171 184.629 112.165C188.43 108.38 194.447 105.921 201.108 105.921C207.777 105.921 213.574 108.38 217.037 112.165Z" fill="white"/>
<path d="M101.978 166.13C101.238 167.755 100.458 169.542 99.7738 171.285C99.0841 173.044 98.396 174.805 97.7962 176.591C96.631 180.163 95.5385 183.768 95.0005 187.384L94.8222 188.535C94.8081 188.673 94.8183 188.87 94.8793 189.117C94.9935 189.614 95.3032 190.279 95.7387 190.931C96.6193 192.25 97.8673 193.586 99.2132 194.826C100.556 196.086 102.014 197.291 103.53 198.435C105.03 199.589 106.613 200.719 108.162 201.778L106.704 204.522C102.983 202.895 99.5181 200.951 96.1618 198.51C94.5118 197.252 92.8821 195.899 91.4385 194.069C90.7269 193.146 90.027 192.104 89.5687 190.727C89.3467 190.041 89.1918 189.264 89.191 188.424C89.1965 188.231 89.2067 187.96 89.22 187.83L89.2583 187.441L89.3365 186.664C89.7619 182.519 90.68 178.535 91.8897 174.67C92.4997 172.74 93.1503 170.829 93.8932 168.955C94.6517 167.068 95.4001 165.257 96.3487 163.357L101.978 166.13Z" fill="#E58A7B"/>
<path d="M107.067 201.312L112.592 198.508L111.165 204.581C111.165 204.581 107.371 205.641 105.606 203.8L107.067 201.312Z" fill="#E58A7B"/>
<path d="M117.653 199.505L116.183 204.526L111.164 204.582L112.592 198.508L117.653 199.505Z" fill="#E58A7B"/>
<path d="M125.458 136.851C125.458 136.851 125.937 138.613 126.697 139.942C126.044 140.552 125.458 140.34 125.458 140.34V136.851Z" fill="#DF5753"/>
<path d="M125.294 136.897C125.618 136.897 125.88 136.496 125.88 136.001C125.88 135.506 125.618 135.105 125.294 135.105C124.971 135.105 124.709 135.506 124.709 136.001C124.709 136.496 124.971 136.897 125.294 136.897Z" fill="#263238"/>
<path d="M125.151 135.132L126.34 134.789C126.34 134.789 125.73 135.718 125.151 135.132Z" fill="#263238"/>
<path d="M110.181 142.587C110.895 146.227 111.608 152.897 109.06 155.326C109.06 155.326 110.056 159.019 116.82 159.019C124.258 159.019 120.375 155.326 120.375 155.326C116.315 154.357 116.42 151.345 117.127 148.517L110.181 142.587Z" fill="#E58A7B"/>
<path d="M108.208 134.302C108.581 140.38 108.609 142.96 111.679 146.079C116.296 150.771 123.679 148.984 125.129 142.918C126.435 137.457 125.605 128.436 119.656 126.017C113.794 123.634 107.834 128.225 108.208 134.302Z" fill="#E58A7B"/>
<path d="M108.807 127.425C105.759 128.537 101.694 127.71 103.289 137.117C104.978 147.077 102.378 150.354 102.378 150.354C102.378 150.354 113.945 152.818 125.753 150.207C125.753 150.207 122.148 143.902 123.16 139.302C124.451 133.434 123.428 131.266 123.428 131.266C123.428 131.266 113.092 125.863 108.807 127.425Z" fill="#263238"/>
<path d="M121.71 137.469C121.698 138.674 122.12 139.887 122.668 140.729C123.491 141.996 124.469 141.48 124.713 140.164C124.934 138.98 124.77 136.894 123.716 136.084C122.677 135.288 121.725 136.093 121.71 137.469Z" fill="#E58A7B"/>
<path d="M106.16 128.49C105.28 126.03 109.459 122.248 118.294 123.821C127.129 125.394 127.517 132.742 127.517 132.742L125.729 130.621L125.81 132.855L116.73 134.599L106.16 128.49Z" fill="#263238"/>
<path d="M106.909 155.74C106.787 154.988 107.292 154.281 108.043 154.157C110.794 153.703 117.047 152.783 120.194 153.219C122.532 153.543 123.151 154.908 123.249 156.025C123.323 156.853 122.638 157.551 121.807 157.514L108.209 156.899C107.556 156.869 107.013 156.386 106.909 155.74Z" fill="#407BFF"/>
<path opacity="0.6" d="M106.909 155.74C106.787 154.988 107.292 154.281 108.043 154.157C110.794 153.703 117.047 152.783 120.194 153.219C122.532 153.543 123.151 154.908 123.249 156.025C123.323 156.853 122.638 157.551 121.807 157.514L108.209 156.899C107.556 156.869 107.013 156.386 106.909 155.74Z" fill="black"/>
<path d="M114.766 292.36L119.806 295.859L128.246 284.421L123.206 280.923L114.766 292.36Z" fill="#E58A7B"/>
<path d="M103.001 292.129L108.333 295.165L115.802 283.068L110.471 280.033L103.001 292.129Z" fill="#E58A7B"/>
<path d="M128.242 284.424L123.893 290.32L118.851 286.82L123.2 280.923L128.242 284.424Z" fill="#CF6F64"/>
<path d="M110.468 280.035L115.801 283.072L111.948 289.306L106.615 286.269L110.468 280.035Z" fill="#CF6F64"/>
<path d="M119.019 193.927C119.019 193.927 138.71 218.743 135.015 242.475C132.031 261.643 114.752 287.598 114.752 287.598L106.627 283.56C106.627 283.56 115.455 266.311 121.251 248.025C123.683 240.357 122.647 231.909 118.102 225.272C108.127 210.703 92.147 219.371 102.896 193.927L119.019 193.927Z" fill="#407BFF"/>
<path opacity="0.6" d="M119.019 193.927C119.019 193.927 138.71 218.743 135.015 242.475C132.031 261.643 114.752 287.598 114.752 287.598L106.627 283.56C106.627 283.56 115.455 266.311 121.251 248.025C123.683 240.357 122.647 231.909 118.102 225.272C108.127 210.703 92.147 219.371 102.896 193.927L119.019 193.927Z" fill="black"/>
<path opacity="0.4" d="M128.677 209.873L125.817 207.028C125.817 207.253 131.362 241.478 132.92 251.097C133.86 248.148 134.584 245.239 135.018 242.475C136.826 230.855 133.024 218.97 128.677 209.873Z" fill="black"/>
<path d="M127.813 193.927C127.813 193.927 151.523 225.113 152.19 243.814C152.749 259.484 126.364 289.753 126.364 289.753L118.704 284.797C118.704 284.797 134.133 263.279 138.017 245.689C136.536 228.278 104.749 193.926 104.749 193.926H127.813V193.927Z" fill="#407BFF"/>
<path opacity="0.6" d="M127.813 193.927C127.813 193.927 151.523 225.113 152.19 243.814C152.749 259.484 126.364 289.753 126.364 289.753L118.704 284.797C118.704 284.797 134.133 263.279 138.017 245.689C136.536 228.278 104.749 193.926 104.749 193.926H127.813V193.927Z" fill="black"/>
<path d="M98.4796 156.721C95.9405 157.32 93.5139 166.537 93.5139 166.537L103.416 173.147C103.416 173.147 106.716 165.862 105.565 162.671C104.364 159.347 101.686 155.964 98.4796 156.721Z" fill="#407BFF"/>
<path opacity="0.2" d="M100.417 162.651L99.7253 170.682L103.412 173.149C103.412 173.149 105.139 169.332 105.654 166.005L100.417 162.651Z" fill="black"/>
<path d="M130.745 156.898C130.745 156.898 133.667 157.927 127.813 193.927C117.926 193.927 107.707 193.927 102.896 193.927C103.315 183.786 103.326 177.532 98.4796 156.721C98.4796 156.721 103.7 155.585 109.06 155.326C113.253 155.125 116.688 154.99 120.375 155.327C125.234 155.771 130.745 156.898 130.745 156.898Z" fill="#407BFF"/>
<path d="M133.276 162.615C133.84 164.175 134.438 165.862 135.059 167.482C135.656 169.127 136.275 170.768 136.914 172.403L138.832 177.315L139.316 178.542L139.56 179.156L139.682 179.463C139.703 179.517 139.699 179.513 139.691 179.507C139.657 179.492 139.628 179.338 139.144 179.019C138.906 178.872 138.507 178.729 138.122 178.721C137.735 178.707 137.429 178.802 137.253 178.879C136.9 179.047 136.895 179.119 136.902 179.108C136.925 179.096 136.998 179.026 137.078 178.93C137.419 178.52 137.832 177.812 138.194 177.108C138.564 176.391 138.914 175.625 139.262 174.847C139.954 173.289 140.583 171.662 141.224 170.033C141.857 168.4 142.454 166.742 143.045 165.079L144.825 160.089L147.838 160.848C147.242 164.418 146.471 167.914 145.552 171.423C145.103 173.181 144.584 174.924 143.99 176.684C143.695 177.565 143.364 178.444 142.984 179.34C142.589 180.243 142.197 181.134 141.498 182.168C141.314 182.43 141.106 182.707 140.816 183.012C140.51 183.313 140.156 183.675 139.392 184.019C139.011 184.182 138.483 184.327 137.873 184.303C137.265 184.285 136.649 184.069 136.223 183.805C135.356 183.252 135.057 182.724 134.8 182.329C134.682 182.13 134.58 181.925 134.51 181.777L134.361 181.474L134.064 180.867L133.473 179.653C132.7 178.025 131.943 176.389 131.226 174.736C130.516 173.078 129.824 171.41 129.153 169.731C128.511 168.025 127.876 166.373 127.31 164.559L133.276 162.615Z" fill="#E58A7B"/>
<path d="M130.745 156.898C133.74 157.611 137.105 166.46 137.105 166.46L128.204 174.045C128.204 174.045 122.435 164.396 123.603 161.21C124.818 157.892 126.833 155.966 130.745 156.898Z" fill="#407BFF"/>
<path d="M146.215 157.33L149.339 154.717L151.512 158.102L149.912 160.929C149.912 160.929 147.362 163.263 145.106 162.076C144.377 160.423 144.83 158.489 146.215 157.33Z" fill="#E58A7B"/>
<path d="M155.01 154.725L154.776 155.577L149.827 156.408L149.339 154.717L155.01 154.725Z" fill="#E58A7B"/>
<path d="M126.998 290.163L118.069 284.388L119.668 281.607L129.703 287.776L126.998 290.163Z" fill="#407BFF"/>
<path d="M111.813 294.756C111.103 294.756 110.168 294.306 109.602 293.991C109.551 293.963 109.522 293.908 109.529 293.849C109.534 293.792 109.574 293.743 109.629 293.725C109.87 293.649 111.988 293 112.588 293.503C112.682 293.583 112.788 293.73 112.754 293.975C112.711 294.299 112.562 294.529 112.313 294.652C112.169 294.724 111.999 294.756 111.813 294.756ZM110.054 293.903C111.025 294.397 111.807 294.579 112.183 294.392C112.344 294.313 112.436 294.163 112.467 293.936C112.484 293.813 112.441 293.759 112.401 293.726C112.086 293.461 110.911 293.668 110.054 293.903Z" fill="#263238"/>
<path d="M109.673 294.009C109.634 294.009 109.597 293.993 109.569 293.965C109.533 293.927 109.52 293.874 109.534 293.824C109.554 293.752 110.042 292.054 110.845 291.666C111.06 291.564 111.277 291.559 111.49 291.647C111.828 291.789 111.861 292.036 111.849 292.17C111.795 292.873 110.361 293.844 109.708 294.004C109.697 294.007 109.685 294.009 109.673 294.009ZM111.189 291.876C111.117 291.876 111.044 291.894 110.97 291.929C110.492 292.16 110.09 293.076 109.898 293.634C110.586 293.345 111.525 292.577 111.559 292.148C111.564 292.079 111.548 291.988 111.376 291.916C111.314 291.889 111.251 291.876 111.189 291.876Z" fill="#263238"/>
<path d="M122.984 298.135C122.103 298.135 120.875 297.004 120.204 296.308C120.161 296.264 120.15 296.197 120.178 296.142C120.206 296.087 120.276 296.056 120.326 296.063C120.636 296.103 123.356 296.47 123.74 297.238C123.813 297.387 123.807 297.545 123.722 297.696C123.578 297.949 123.369 298.095 123.102 298.128C123.064 298.133 123.024 298.135 122.984 298.135ZM120.718 296.413C121.707 297.374 122.57 297.905 123.067 297.839C123.24 297.817 123.371 297.724 123.469 297.552C123.507 297.486 123.51 297.428 123.479 297.368C123.271 296.95 121.818 296.59 120.718 296.413Z" fill="#263238"/>
<path d="M120.804 296.389C120.603 296.389 120.423 296.376 120.282 296.35C120.232 296.34 120.189 296.305 120.172 296.258C120.154 296.209 120.163 296.154 120.196 296.114C120.24 296.06 121.298 294.785 122.298 294.697C122.611 294.673 122.876 294.756 123.102 294.95C123.41 295.214 123.389 295.448 123.317 295.598C123.069 296.119 121.718 296.389 120.804 296.389ZM120.602 296.096C121.476 296.144 122.873 295.854 123.055 295.473C123.07 295.441 123.117 295.344 122.914 295.171C122.745 295.027 122.55 294.966 122.324 294.987C121.667 295.045 120.935 295.741 120.602 296.096Z" fill="#263238"/>
<path d="M109.887 293.186L103.254 291.311C103.013 291.243 102.77 291.354 102.67 291.58L100.431 296.614C100.198 297.137 100.521 297.784 101.081 297.932C103.404 298.546 104.557 298.725 107.473 299.55C109.268 300.057 111.837 300.985 114.315 301.685C116.738 302.37 117.617 299.972 116.649 299.458C112.303 297.155 111.96 295.576 110.772 293.827C110.558 293.512 110.241 293.286 109.887 293.186Z" fill="#407BFF"/>
<path d="M120.384 295.395L114.723 291.464C114.516 291.321 114.25 291.348 114.081 291.529L110.326 295.561C109.937 295.979 110.031 296.696 110.512 297.018C112.509 298.354 113.542 298.898 116.032 300.627C117.564 301.691 120.621 304.049 122.736 305.518C124.806 306.955 126.417 304.973 125.667 304.172C122.308 300.581 121.567 298.331 121.012 296.289C120.911 295.921 120.685 295.604 120.384 295.395Z" fill="#407BFF"/>
<path d="M115.795 288.117L105.584 283.043L106.641 280.28L117.539 285.622L115.795 288.117Z" fill="#407BFF"/>
<path d="M102.523 192.464L101.659 194.695C101.572 194.867 101.777 195.044 102.065 195.044H127.936C128.16 195.044 128.347 194.934 128.361 194.793L128.585 192.563C128.601 192.408 128.406 192.277 128.16 192.277H102.928C102.744 192.277 102.58 192.353 102.523 192.464Z" fill="#407BFF"/>
<path opacity="0.4" d="M102.523 192.464L101.659 194.695C101.572 194.867 101.777 195.044 102.065 195.044H127.936C128.16 195.044 128.347 194.934 128.361 194.793L128.585 192.563C128.601 192.408 128.406 192.277 128.16 192.277H102.928C102.744 192.277 102.58 192.353 102.523 192.464Z" fill="white"/>
<path d="M106.592 195.286H105.916C105.782 195.286 105.679 195.216 105.689 195.132L106.006 192.234C106.015 192.15 106.132 192.08 106.268 192.08H106.943C107.078 192.08 107.18 192.15 107.171 192.234L106.854 195.132C106.845 195.217 106.727 195.286 106.592 195.286Z" fill="#407BFF"/>
<path d="M122.55 195.286H121.875C121.74 195.286 121.638 195.216 121.647 195.132L121.964 192.234C121.973 192.15 122.09 192.08 122.226 192.08H122.901C123.036 192.08 123.138 192.15 123.129 192.234L122.812 195.132C122.803 195.217 122.685 195.286 122.55 195.286Z" fill="#407BFF"/>
<path d="M105.997 327.726C117.568 327.726 126.948 327.045 126.948 326.206C126.948 325.366 117.568 324.686 105.997 324.686C94.4263 324.686 85.0464 325.366 85.0464 326.206C85.0464 327.045 94.4263 327.726 105.997 327.726Z" fill="#F5F5F5"/>
<path d="M118.765 324.061C115.058 322.985 110.978 321.598 108.454 320.124C108.384 320.084 108.309 320.054 108.238 320.016V303.259H115.694C116.927 303.259 117.926 302.259 117.926 301.026C117.926 299.794 116.927 298.794 115.694 298.794H108.238V222.297H103.774V298.794H96.3182C95.0858 298.794 94.0864 299.794 94.0864 301.026C94.0864 302.259 95.0858 303.259 96.3182 303.259H103.774V320.016C103.703 320.053 103.628 320.082 103.558 320.123C101.034 321.597 96.954 322.984 93.2473 324.06C92.0313 324.413 92.2878 326.204 93.5538 326.204H106.006H118.457C119.724 326.205 119.981 324.413 118.765 324.061Z" fill="#E0E0E0"/>
<path d="M119.912 230.883H92.1001C89.8722 230.883 88.0493 229.06 88.0493 226.832V218.564C88.0493 216.336 89.8722 214.514 92.1001 214.514H119.912C122.14 214.514 123.963 216.336 123.963 218.564V226.832C123.963 229.06 122.14 230.883 119.912 230.883Z" fill="#407BFF"/>
<path d="M91.8444 230.883V232.306C91.8444 233.479 93.1214 234.44 94.6815 234.44H117.331C118.891 234.44 120.168 233.48 120.168 232.306V230.883H91.8444Z" fill="#407BFF"/>
<path opacity="0.3" d="M91.8444 230.883V232.306C91.8444 233.479 93.1214 234.44 94.6815 234.44H117.331C118.891 234.44 120.168 233.48 120.168 232.306V230.883H91.8444Z" fill="white"/>
</svg>
