<svg width="28" height="28" viewBox="0 0 28 28" fill="none" xmlns="http://www.w3.org/2000/svg">
<path d="M6.83333 24.5C6.19167 24.5 5.64256 24.2717 5.186 23.8152C4.72944 23.3586 4.50078 22.8091 4.5 22.1667V5.83333C4.5 5.19167 4.72867 4.64256 5.186 4.186C5.64333 3.72945 6.19244 3.50078 6.83333 3.5H11.7333C11.9861 2.8 12.4092 2.23611 13.0027 1.80833C13.5961 1.38056 14.2619 1.16667 15 1.16667C15.7381 1.16667 16.4043 1.38056 16.9985 1.80833C17.5927 2.23611 18.0154 2.8 18.2667 3.5H23.1667C23.8083 3.5 24.3578 3.72867 24.8152 4.186C25.2725 4.64333 25.5008 5.19245 25.5 5.83333V22.1667C25.5 22.8083 25.2717 23.3578 24.8152 23.8152C24.3586 24.2725 23.8091 24.5008 23.1667 24.5H6.83333ZM10.3333 19.8333H16.1667C16.4972 19.8333 16.7745 19.7213 16.9985 19.4973C17.2225 19.2733 17.3341 18.9964 17.3333 18.6667C17.3326 18.3369 17.2206 18.06 16.9973 17.836C16.7741 17.612 16.4972 17.5 16.1667 17.5H10.3333C10.0028 17.5 9.72589 17.612 9.50267 17.836C9.27944 18.06 9.16744 18.3369 9.16667 18.6667C9.16589 18.9964 9.27789 19.2737 9.50267 19.4985C9.72744 19.7233 10.0043 19.8349 10.3333 19.8333ZM10.3333 15.1667H19.6667C19.9972 15.1667 20.2745 15.0547 20.4985 14.8307C20.7225 14.6067 20.8341 14.3298 20.8333 14C20.8326 13.6702 20.7206 13.3933 20.4973 13.1693C20.2741 12.9453 19.9972 12.8333 19.6667 12.8333H10.3333C10.0028 12.8333 9.72589 12.9453 9.50267 13.1693C9.27944 13.3933 9.16744 13.6702 9.16667 14C9.16589 14.3298 9.27789 14.6071 9.50267 14.8318C9.72744 15.0566 10.0043 15.1682 10.3333 15.1667ZM10.3333 10.5H19.6667C19.9972 10.5 20.2745 10.388 20.4985 10.164C20.7225 9.94 20.8341 9.66311 20.8333 9.33333C20.8326 9.00356 20.7206 8.72667 20.4973 8.50267C20.2741 8.27867 19.9972 8.16667 19.6667 8.16667H10.3333C10.0028 8.16667 9.72589 8.27867 9.50267 8.50267C9.27944 8.72667 9.16744 9.00356 9.16667 9.33333C9.16589 9.66311 9.27789 9.94039 9.50267 10.1652C9.72744 10.3899 10.0043 10.5016 10.3333 10.5ZM15 4.95833C15.2528 4.95833 15.462 4.8755 15.6277 4.70983C15.7933 4.54417 15.8758 4.33533 15.875 4.08333C15.8742 3.83133 15.7914 3.6225 15.6265 3.45683C15.4616 3.29117 15.2528 3.20833 15 3.20833C14.7472 3.20833 14.5384 3.29117 14.3735 3.45683C14.2086 3.6225 14.1258 3.83133 14.125 4.08333C14.1242 4.33533 14.2071 4.54456 14.3735 4.711C14.5399 4.87745 14.7488 4.95989 15 4.95833Z" fill="#1E1E1E"/>
</svg>
