<svg width="28" height="28" viewBox="0 0 28 28" fill="none" xmlns="http://www.w3.org/2000/svg">
<path d="M21 10.5H24.5V14C24.5 13.0717 24.1313 12.1815 23.4749 11.5251C22.8185 10.8687 21.9283 10.5 21 10.5ZM3.5 10.5H21C20.0717 10.5 19.1815 10.8687 18.5251 11.5251C17.8687 12.1815 17.5 13.0717 17.5 14V17.969C16.9679 17.6618 16.3644 17.5001 15.75 17.5001C15.1357 17.5001 14.5321 17.6618 14 17.969C13.468 18.2762 13.0261 18.718 12.7189 19.25C12.4117 19.7821 12.25 20.3856 12.25 21V24.5H7.875C6.71468 24.5 5.60188 24.0391 4.78141 23.2186C3.96094 22.3981 3.5 21.2853 3.5 20.125V10.5ZM20.125 3.5C21.2853 3.5 22.3981 3.96094 23.2186 4.78141C24.0391 5.60188 24.5 6.71468 24.5 7.875V8.75H3.5V7.875C3.5 6.71468 3.96094 5.60188 4.78141 4.78141C5.60188 3.96094 6.71468 3.5 7.875 3.5H20.125ZM21 12.25C20.5359 12.25 20.0908 12.4344 19.7626 12.7626C19.4344 13.0908 19.25 13.5359 19.25 14V26.25C19.25 26.7141 19.4344 27.1592 19.7626 27.4874C20.0908 27.8156 20.5359 28 21 28C21.4641 28 21.9092 27.8156 22.2374 27.4874C22.5656 27.1592 22.75 26.7141 22.75 26.25V14C22.75 13.5359 22.5656 13.0908 22.2374 12.7626C21.9092 12.4344 21.4641 12.25 21 12.25ZM15.75 19.25C15.2859 19.25 14.8408 19.4344 14.5126 19.7626C14.1844 20.0908 14 20.5359 14 21V26.25C14 26.7141 14.1844 27.1592 14.5126 27.4874C14.8408 27.8156 15.2859 28 15.75 28C16.2141 28 16.6592 27.8156 16.9874 27.4874C17.3156 27.1592 17.5 26.7141 17.5 26.25V21C17.5 20.5359 17.3156 20.0908 16.9874 19.7626C16.6592 19.4344 16.2141 19.25 15.75 19.25ZM24.5 17.5C24.5 17.0359 24.6844 16.5908 25.0126 16.2626C25.3408 15.9344 25.7859 15.75 26.25 15.75C26.7141 15.75 27.1592 15.9344 27.4874 16.2626C27.8156 16.5908 28 17.0359 28 17.5V26.25C28 26.7141 27.8156 27.1592 27.4874 27.4874C27.1592 27.8156 26.7141 28 26.25 28C25.7859 28 25.3408 27.8156 25.0126 27.4874C24.6844 27.1592 24.5 26.7141 24.5 26.25V17.5Z" fill="black"/>
</svg>
