<svg width="29" height="28" viewBox="0 0 29 28" fill="none" xmlns="http://www.w3.org/2000/svg">
<path d="M7.57533 21.4247C9.29319 23.1425 11.5536 24.2116 13.9713 24.4496C16.3891 24.6876 18.8145 24.0798 20.8344 22.7299C22.8543 21.38 24.3435 19.3714 25.0484 17.0465C25.7532 14.7215 25.6301 12.2241 24.6999 9.97983C23.7697 7.73553 22.09 5.88323 19.9472 4.73858C17.8043 3.59394 15.3308 3.22778 12.9482 3.70251C10.5656 4.17725 8.42135 5.46349 6.88086 7.34205C5.34036 9.22061 4.49894 11.5752 4.5 14.0047V16.3333" stroke="#1E1E1E" stroke-width="2.5" stroke-linecap="round" stroke-linejoin="round"/>
<path d="M2.16663 14L4.49996 16.3333L6.83329 14M13.8333 9.33334V15.1667H19.6666" stroke="#1E1E1E" stroke-width="2.5" stroke-linecap="round" stroke-linejoin="round"/>
</svg>
