<svg width="28" height="28" viewBox="0 0 28 28" fill="none" xmlns="http://www.w3.org/2000/svg">
<path d="M22.1667 3.50001H17.29C16.8 2.14667 15.5167 1.16667 14 1.16667C12.4833 1.16667 11.2 2.14667 10.71 3.50001H5.83333C4.55 3.50001 3.5 4.55001 3.5 5.83334V22.1667C3.5 23.45 4.55 24.5 5.83333 24.5H22.1667C23.45 24.5 24.5 23.45 24.5 22.1667V5.83334C24.5 4.55001 23.45 3.50001 22.1667 3.50001ZM14 3.50001C14.6417 3.50001 15.1667 4.02501 15.1667 4.66667C15.1667 5.30834 14.6417 5.83334 14 5.83334C13.3583 5.83334 12.8333 5.30834 12.8333 4.66667C12.8333 4.02501 13.3583 3.50001 14 3.50001ZM11.6667 19.8333L7 15.1667L8.645 13.5217L11.6667 16.5317L19.355 8.84334L21 10.5L11.6667 19.8333Z" fill="#1E1E1E"/>
</svg>
