<svg width="28" height="28" viewBox="0 0 28 28" fill="none" xmlns="http://www.w3.org/2000/svg">
<path fill-rule="evenodd" clip-rule="evenodd" d="M14.0002 6.99999C13.4639 6.99999 12.933 7.10561 12.4375 7.31082C11.9421 7.51603 11.492 7.8168 11.1128 8.19597C10.7336 8.57515 10.4329 9.02529 10.2277 9.5207C10.0224 10.0161 9.91683 10.5471 9.91683 11.0833C9.91683 11.6196 10.0224 12.1505 10.2277 12.646C10.4329 13.1414 10.7336 13.5915 11.1128 13.9707C11.492 14.3499 11.9421 14.6506 12.4375 14.8558C12.933 15.061 13.4639 15.1667 14.0002 15.1667C15.0831 15.1667 16.1217 14.7365 16.8875 13.9707C17.6533 13.2049 18.0835 12.1663 18.0835 11.0833C18.0835 10.0004 17.6533 8.96175 16.8875 8.19597C16.1217 7.4302 15.0831 6.99999 14.0002 6.99999ZM12.2502 16.3333C11.0125 16.3333 9.8255 16.825 8.95033 17.7002C8.07516 18.5753 7.5835 19.7623 7.5835 21C7.5835 21.6188 7.82933 22.2123 8.26691 22.6499C8.7045 23.0875 9.29799 23.3333 9.91683 23.3333H18.0835C18.7023 23.3333 19.2958 23.0875 19.7334 22.6499C20.171 22.2123 20.4168 21.6188 20.4168 21C20.4168 19.7623 19.9252 18.5753 19.05 17.7002C18.1748 16.825 16.9878 16.3333 15.7502 16.3333H12.2502ZM20.2068 12.7213C20.5777 11.3089 20.4566 9.81227 19.8635 8.47782C19.2704 7.14337 18.2406 6.05064 16.9437 5.37949C17.4379 5.04176 18.0003 4.81682 18.5911 4.7206C19.1819 4.62438 19.7867 4.65923 20.3625 4.82269C20.9384 4.98615 21.4712 5.27421 21.9234 5.66648C22.3755 6.05876 22.7359 6.54564 22.979 7.09266C23.2221 7.63968 23.3419 8.23345 23.33 8.83193C23.3181 9.4304 23.1748 10.0189 22.9102 10.5559C22.6456 11.0928 22.2662 11.565 21.7988 11.939C21.3314 12.313 20.7875 12.5797 20.2057 12.7202L20.2068 12.7213ZM22.7502 21H23.3335C23.9523 21 24.5458 20.7542 24.9834 20.3166C25.421 19.879 25.6668 19.2855 25.6668 18.6667C25.6668 17.429 25.1752 16.242 24.3 15.3668C23.4248 14.4917 22.2378 14 21.0002 14H19.7168C19.5581 14.3108 19.3744 14.6081 19.1673 14.889C20.2541 15.4969 21.159 16.3836 21.7888 17.4578C22.4186 18.532 22.7505 19.7548 22.7502 21ZM4.66683 8.74999C4.66665 8.00658 4.86943 7.27722 5.25329 6.64058C5.63715 6.00394 6.18753 5.48417 6.84508 5.13733C7.50262 4.79049 8.24238 4.62974 8.98456 4.67241C9.72675 4.71509 10.4432 4.95957 11.0567 5.37949C9.75845 6.04919 8.7276 7.1418 8.13448 8.47674C7.54137 9.81167 7.42149 11.309 7.79466 12.7213C6.90309 12.5067 6.10971 11.9983 5.54231 11.2779C4.97491 10.5575 4.66652 9.66702 4.66683 8.74999ZM8.2835 14H7.00016C5.76249 14 4.5755 14.4917 3.70033 15.3668C2.82516 16.242 2.3335 17.429 2.3335 18.6667C2.3335 19.2855 2.57933 19.879 3.01691 20.3166C3.4545 20.7542 4.04799 21 4.66683 21H5.25016C5.24985 19.7548 5.58171 18.532 6.2115 17.4578C6.8413 16.3836 7.74624 15.4969 8.833 14.889C8.62596 14.6081 8.44219 14.3108 8.2835 14Z" fill="#1E1E1E"/>
</svg>
